<?xml version="1.0" encoding="utf-8"?>
<svg version="1.1" xmlns="http://www.w3.org/2000/svg" xmlns:xlink="http://www.w3.org/1999/xlink" x="0px" y="0px"
	 viewBox="0 0 168.3 131.4" style="enable-background:new 0 0 168.3 131.4;" xml:space="preserve">
<style type="text/css">
	.st0{fill:#FFFFFF;}
	.st1{fill:#E22434;}
	.st2{display:none;}
	.st3{fill:#1B3663;}
	.st4{fill:#00B1D1;}
	.st5{fill:#BFE6EF;}
	.st6{fill:#69CBE0;}
	.st7{fill:#0080BD;}
	.st8{fill:#005DAB;}
	.st9{fill:#183660;}
	.st10{fill:none;stroke:#183660;stroke-width:1.9441;stroke-miterlimit:10;}
	.st11{fill:none;stroke:#183660;stroke-width:1.6201;stroke-miterlimit:10;}
	.st12{fill:none;stroke:#183660;stroke-width:1.2961;stroke-miterlimit:10;}
	.st13{fill:none;stroke:#C0E6EF;stroke-width:1.9441;stroke-miterlimit:10;}
	.st14{fill:#C0E6EF;}
	.st15{fill:none;stroke:#C0E6EF;stroke-width:1.2961;stroke-miterlimit:10;}
	.st16{fill:none;stroke:#C0E6EF;stroke-width:1.6201;stroke-miterlimit:10;}
	.st17{fill:none;stroke:#FFFFFF;stroke-width:1.9441;stroke-miterlimit:10;}
	.st18{fill:none;stroke:#FFFFFF;stroke-width:1.2961;stroke-miterlimit:10;}
	.st19{fill:none;stroke:#FFFFFF;stroke-width:1.6201;stroke-miterlimit:10;}
</style>
<g id="Layer_2">
</g>
<g id="Layer_1">
	<g>
		<g>
			<g>
				<path class="st0" d="M4.7,104.8l0.1,1.8c1.1-1.4,2.6-2.1,4.4-2.1c1.9,0,3.2,0.9,4,2.6c1.1-1.7,2.6-2.6,4.7-2.6
					c3.3,0,5,2.3,5.1,6.9v12.5h-5v-12.1c0-1.1-0.2-1.9-0.5-2.4c-0.3-0.5-0.8-0.7-1.5-0.7c-0.9,0-1.6,0.6-2.1,1.7l0,0.6v12.9H9v-12.1
					c0-1.1-0.1-1.9-0.4-2.4c-0.3-0.5-0.8-0.7-1.6-0.7c-0.9,0-1.5,0.5-2,1.4v13.8H0v-19H4.7z"/>
				<path class="st0" d="M26.4,113.8c0-3.1,0.6-5.4,1.7-7s2.7-2.3,4.7-2.3c1.7,0,3.1,0.7,4,2l0.2-1.7h4.5v19c0,2.4-0.7,4.3-2,5.6
					c-1.4,1.3-3.3,1.9-5.9,1.9c-1,0-2.1-0.2-3.3-0.6s-2-0.9-2.6-1.6l1.7-3.4c0.5,0.5,1.1,0.9,1.8,1.2c0.7,0.3,1.5,0.5,2.1,0.5
					c1.1,0,1.9-0.3,2.4-0.8s0.7-1.4,0.7-2.6v-1.6c-0.9,1.2-2.2,1.9-3.7,1.9c-2,0-3.6-0.8-4.7-2.4s-1.7-3.8-1.7-6.7V113.8z M31.4,115
					c0,1.8,0.2,3,0.7,3.8s1.2,1.2,2.2,1.2c1,0,1.8-0.4,2.3-1.1v-9.1c-0.5-0.8-1.3-1.2-2.2-1.2c-1,0-1.7,0.4-2.2,1.2
					s-0.7,2.1-0.7,3.9V115z"/>
				<path class="st0" d="M50.1,104.8l0.1,1.8c1.1-1.4,2.6-2.1,4.4-2.1c1.9,0,3.2,0.9,4,2.6c1.1-1.7,2.6-2.6,4.7-2.6
					c3.3,0,5,2.3,5.1,6.9v12.5h-5v-12.1c0-1.1-0.2-1.9-0.5-2.4s-0.8-0.7-1.5-0.7c-0.9,0-1.6,0.6-2.1,1.7l0,0.6v12.9h-5v-12.1
					c0-1.1-0.1-1.9-0.4-2.4s-0.8-0.7-1.6-0.7c-0.9,0-1.5,0.5-2,1.4v13.8h-5v-19H50.1z"/>
				<path class="st0" d="M78.2,100.2v4.7h2.5v3.7h-2.5v9.5c0,0.8,0.1,1.3,0.3,1.5c0.2,0.3,0.6,0.4,1.2,0.4c0.5,0,0.9,0,1.2-0.1
					l0,3.9c-0.8,0.3-1.8,0.5-2.7,0.5c-3.2,0-4.8-1.8-4.9-5.5v-10.1h-2.2v-3.7h2.2v-4.7H78.2z"/>
				<path class="st0" d="M90.6,122.4c1.4,0,2.4-0.4,3.1-1.1c0.7-0.8,1.1-1.8,1.2-3.3h1.9c-0.1,1.9-0.7,3.5-1.9,4.6
					c-1.1,1.1-2.6,1.7-4.3,1.7c-2.3,0-4-0.7-5.1-2.2s-1.7-3.6-1.8-6.4v-2.3c0-2.9,0.6-5.1,1.7-6.6s2.9-2.2,5.1-2.2
					c1.9,0,3.4,0.6,4.5,1.8s1.7,2.9,1.7,5H95c-0.1-1.6-0.5-2.8-1.2-3.6s-1.8-1.3-3.1-1.3c-1.7,0-2.9,0.6-3.7,1.7
					c-0.8,1.1-1.2,2.9-1.2,5.2v2.2c0,2.4,0.4,4.2,1.2,5.3S89,122.4,90.6,122.4z"/>
				<path class="st0" d="M100.5,113.4c0-2.7,0.6-4.9,1.9-6.5s2.9-2.4,5.1-2.4c2.2,0,3.9,0.8,5.1,2.4s1.9,3.7,1.9,6.5v2
					c0,2.8-0.6,5-1.9,6.5s-2.9,2.3-5.1,2.3c-2.1,0-3.8-0.8-5-2.3s-1.9-3.6-1.9-6.3V113.4z M102.5,115.3c0,2.2,0.4,3.9,1.3,5.2
					c0.9,1.3,2.1,1.9,3.7,1.9c1.6,0,2.8-0.6,3.7-1.8c0.8-1.2,1.3-2.9,1.3-5.2v-2c0-2.2-0.4-3.9-1.3-5.2c-0.9-1.3-2.1-1.9-3.7-1.9
					c-1.5,0-2.7,0.6-3.6,1.8c-0.9,1.2-1.3,2.9-1.4,5.1V115.3z"/>
				<path class="st0" d="M121.1,104.8l0.1,3c0.6-1,1.3-1.9,2.2-2.5s1.9-0.9,3-0.9c3.3,0,5,2.2,5.1,6.6v12.7h-1.9v-12.5
					c0-1.7-0.3-3-0.9-3.8c-0.6-0.8-1.5-1.2-2.8-1.2c-1,0-1.9,0.4-2.8,1.2s-1.4,1.8-1.9,3.2v13.2h-2v-19H121.1z"/>
				<path class="st0" d="M138.2,123.8v-17.3h-2.6v-1.8h2.6v-2.5c0-1.9,0.5-3.3,1.3-4.3s2-1.5,3.5-1.5c0.7,0,1.3,0.1,1.9,0.3
					l-0.1,1.8c-0.5-0.1-1-0.2-1.6-0.2c-0.9,0-1.7,0.4-2.2,1.1s-0.8,1.7-0.8,3v2.3h3.7v1.8h-3.7v17.3H138.2z"/>
				<path class="st0" d="M148,99.3c0-0.4,0.1-0.7,0.3-1s0.5-0.4,0.9-0.4s0.7,0.1,1,0.4s0.3,0.6,0.3,1s-0.1,0.7-0.3,1s-0.5,0.4-1,0.4
					s-0.7-0.1-0.9-0.4S148,99.7,148,99.3z M150.2,123.8h-2v-19h2V123.8z"/>
				<path class="st0" d="M155.3,113.5c0-3,0.5-5.2,1.5-6.7s2.6-2.2,4.6-2.2c2.2,0,3.8,1,4.9,3l0.1-2.7h1.8v19.6c0,2.3-0.6,4-1.6,5.2
					c-1.1,1.2-2.7,1.8-4.7,1.8c-1,0-2.1-0.3-3.2-0.8s-1.9-1.1-2.4-1.9l0.9-1.4c1.3,1.5,2.8,2.2,4.5,2.2c1.6,0,2.7-0.4,3.5-1.3
					c0.7-0.8,1.1-2.1,1.1-3.8v-3c-1.1,1.8-2.7,2.7-4.9,2.7c-2,0-3.5-0.7-4.5-2.2s-1.6-3.6-1.6-6.5V113.5z M157.2,115.2
					c0,2.4,0.4,4.2,1.1,5.4s1.9,1.7,3.5,1.7c2.1,0,3.6-1,4.5-3v-9.7c-0.9-2.2-2.4-3.3-4.4-3.3c-1.6,0-2.8,0.6-3.5,1.7
					s-1.1,2.9-1.1,5.3V115.2z"/>
			</g>
		</g>
		<g>
			<g>
				<g>
					<line class="st19" x1="58.9" y1="20.1" x2="77.9" y2="35.6"/>
					<g>
						<polygon class="st0" points="57.6,23.2 55.3,17.1 61.7,18.2 						"/>
					</g>
				</g>
			</g>
			<circle class="st0" cx="48" cy="10.1" r="10.1"/>
			<g>
				<g>
					<line class="st19" x1="77.9" y1="35.1" x2="96.2" y2="66.7"/>
					<g>
						<polygon class="st0" points="93,67.5 98.6,70.7 98.6,64.2 						"/>
					</g>
				</g>
			</g>
			<g>
				<g>
					<line class="st19" x1="92.3" y1="38.9" x2="114.4" y2="43.6"/>
					<g>
						<polygon class="st0" points="92.6,42.3 87.8,38 93.9,36 						"/>
					</g>
				</g>
			</g>
			<g>
				<g>
					<line class="st19" x1="77.9" y1="35.6" x2="94.5" y2="25.1"/>
					<g>
						<polygon class="st0" points="95.4,28.3 98.4,22.6 91.9,22.9 						"/>
					</g>
				</g>
			</g>
			<g>
				<g>
					<line class="st19" x1="48.5" y1="41.3" x2="63.5" y2="38.7"/>
					<g>
						<polygon class="st0" points="63.1,42.1 68.1,38 62,35.7 						"/>
					</g>
				</g>
			</g>
			<g>
				<g>
					<line class="st19" x1="111.4" y1="66.3" x2="124.4" y2="45.2"/>
					<g>
						<polygon class="st0" points="114.6,67.2 109,70.2 109.1,63.8 						"/>
					</g>
				</g>
			</g>
			<g>
				<g>
					<line class="st19" x1="115.4" y1="30.4" x2="124.4" y2="45.2"/>
					<g>
						<polygon class="st0" points="113.2,32.8 113,26.4 118.7,29.5 						"/>
					</g>
				</g>
			</g>
			<circle class="st0" cx="77.9" cy="35.6" r="10.1"/>
			<circle class="st0" cx="44.6" cy="42.4" r="10.1"/>
			<circle class="st0" cx="107.4" cy="18.1" r="10.1"/>
			<circle class="st0" cx="104.1" cy="79.1" r="10.1"/>
			<circle class="st0" cx="124.4" cy="45.2" r="10.1"/>
		</g>
	</g>
</g>
</svg>
