<?xml version="1.0" encoding="utf-8"?>
<svg version="1.1" xmlns="http://www.w3.org/2000/svg" xmlns:xlink="http://www.w3.org/1999/xlink" x="0px" y="0px"
	 viewBox="0 0 120 107.1" style="enable-background:new 0 0 120 107.1;" xml:space="preserve">
<style type="text/css">
	.st0{fill:#FFFFFF;}
	.st1{fill:#E22434;}
	.st2{display:none;}
	.st3{fill:#1B3663;}
	.st4{fill:#00B1D1;}
	.st5{fill:#BFE6EF;}
	.st6{fill:#69CBE0;}
	.st7{fill:#0080BD;}
	.st8{fill:#005DAB;}
	.st9{fill:#183660;}
	.st10{fill:none;stroke:#183660;stroke-width:1.9441;stroke-miterlimit:10;}
	.st11{fill:none;stroke:#183660;stroke-width:1.6201;stroke-miterlimit:10;}
	.st12{fill:none;stroke:#183660;stroke-width:1.2961;stroke-miterlimit:10;}
	.st13{fill:none;stroke:#C0E6EF;stroke-width:1.9441;stroke-miterlimit:10;}
	.st14{fill:#C0E6EF;}
	.st15{fill:none;stroke:#C0E6EF;stroke-width:1.2961;stroke-miterlimit:10;}
	.st16{fill:none;stroke:#C0E6EF;stroke-width:1.6201;stroke-miterlimit:10;}
	.st17{fill:none;stroke:#FFFFFF;stroke-width:1.9441;stroke-miterlimit:10;}
	.st18{fill:none;stroke:#FFFFFF;stroke-width:1.2961;stroke-miterlimit:10;}
	.st19{fill:none;stroke:#FFFFFF;stroke-width:1.6201;stroke-miterlimit:10;}
</style>
<g id="Layer_2">
</g>
<g id="Layer_1">
	<g>
		<g>
			<g>
				<line class="st17" x1="29.2" y1="24.1" x2="52.1" y2="42.8"/>
				<g>
					<polygon class="st0" points="27.7,27.8 24.9,20.5 32.6,21.8 					"/>
				</g>
			</g>
		</g>
		<circle class="st0" cx="16.1" cy="12.2" r="12.1"/>
		<g>
			<g>
				<line class="st17" x1="52.1" y1="42.1" x2="74.1" y2="80"/>
				<g>
					<polygon class="st0" points="70.1,80.9 76.9,84.8 76.8,77.1 					"/>
				</g>
			</g>
		</g>
		<g>
			<g>
				<line class="st17" x1="69.4" y1="46.7" x2="95.8" y2="52.4"/>
				<g>
					<polygon class="st0" points="69.7,50.7 63.9,45.6 71.3,43.2 					"/>
				</g>
			</g>
		</g>
		<g>
			<g>
				<line class="st17" x1="52.1" y1="42.8" x2="71.9" y2="30.1"/>
				<g>
					<polygon class="st0" points="73.1,34 76.6,27.1 68.9,27.5 					"/>
				</g>
			</g>
		</g>
		<g>
			<g>
				<line class="st17" x1="16.8" y1="49.6" x2="34.8" y2="46.5"/>
				<g>
					<polygon class="st0" points="34.3,50.5 40.3,45.6 33,42.9 					"/>
				</g>
			</g>
		</g>
		<g>
			<g>
				<line class="st17" x1="92.3" y1="79.5" x2="107.8" y2="54.2"/>
				<g>
					<polygon class="st0" points="96.1,80.6 89.3,84.3 89.5,76.5 					"/>
				</g>
			</g>
		</g>
		<g>
			<g>
				<line class="st17" x1="97.2" y1="36.6" x2="107.8" y2="54.2"/>
				<g>
					<polygon class="st0" points="94.4,39.5 94.3,31.8 101.1,35.5 					"/>
				</g>
			</g>
		</g>
		<circle class="st0" cx="52.1" cy="42.8" r="12.1"/>
		<circle class="st0" cx="12.2" cy="50.8" r="12.1"/>
		<circle class="st0" cx="87.5" cy="21.7" r="12.1"/>
		<circle class="st0" cx="83.5" cy="95" r="12.1"/>
		<circle class="st0" cx="107.8" cy="54.2" r="12.1"/>
	</g>
</g>
</svg>
